<svg width="211" height="40" viewBox="0 0 211 40" fill="none" xmlns="http://www.w3.org/2000/svg">
<rect x="1" y="1" width="208.25" height="37.5765" rx="5" stroke="#D5D5D5" stroke-width="2"/>
<path d="M75.1516 28.168C74.0456 28.168 72.9746 28 71.9386 27.664C70.9166 27.314 70.1116 26.866 69.5236 26.32L70.3006 24.682C70.8606 25.186 71.5746 25.599 72.4426 25.921C73.3246 26.229 74.2276 26.383 75.1516 26.383C76.3696 26.383 77.2796 26.18 77.8816 25.774C78.4836 25.354 78.7846 24.801 78.7846 24.115C78.7846 23.611 78.6166 23.205 78.2806 22.897C77.9586 22.575 77.5526 22.33 77.0626 22.162C76.5866 21.994 75.9076 21.805 75.0256 21.595C73.9196 21.329 73.0236 21.063 72.3376 20.797C71.6656 20.531 71.0846 20.125 70.5946 19.579C70.1186 19.019 69.8806 18.27 69.8806 17.332C69.8806 16.548 70.0836 15.841 70.4896 15.211C70.9096 14.581 71.5396 14.077 72.3796 13.699C73.2196 13.321 74.2626 13.132 75.5086 13.132C76.3766 13.132 77.2306 13.244 78.0706 13.468C78.9106 13.692 79.6316 14.014 80.2336 14.434L79.5406 16.114C78.9246 15.722 78.2666 15.428 77.5666 15.232C76.8666 15.022 76.1806 14.917 75.5086 14.917C74.3186 14.917 73.4226 15.134 72.8206 15.568C72.2326 16.002 71.9386 16.562 71.9386 17.248C71.9386 17.752 72.1066 18.165 72.4426 18.487C72.7786 18.795 73.1916 19.04 73.6816 19.222C74.1856 19.39 74.8646 19.572 75.7186 19.768C76.8246 20.034 77.7136 20.3 78.3856 20.566C79.0576 20.832 79.6316 21.238 80.1076 21.784C80.5976 22.33 80.8426 23.065 80.8426 23.989C80.8426 24.759 80.6326 25.466 80.2126 26.11C79.7926 26.74 79.1556 27.244 78.3016 27.622C77.4476 27.986 76.3976 28.168 75.1516 28.168ZM89.6436 13.3C91.5476 13.3 93.0456 13.755 94.1376 14.665C95.2296 15.575 95.7756 16.828 95.7756 18.424C95.7756 20.02 95.2296 21.273 94.1376 22.183C93.0456 23.093 91.5476 23.548 89.6436 23.548H86.0106V28H83.9106V13.3H89.6436ZM89.5806 21.721C90.9106 21.721 91.9256 21.441 92.6256 20.881C93.3256 20.307 93.6756 19.488 93.6756 18.424C93.6756 17.36 93.3256 16.548 92.6256 15.988C91.9256 15.414 90.9106 15.127 89.5806 15.127H86.0106V21.721H89.5806ZM107.488 24.325H99.6765L98.0595 28H95.8965L102.553 13.3H104.632L111.31 28H109.105L107.488 24.325ZM106.753 22.645L103.582 15.442L100.411 22.645H106.753ZM119.871 28.168C118.401 28.168 117.071 27.846 115.881 27.202C114.705 26.544 113.781 25.648 113.109 24.514C112.437 23.366 112.101 22.078 112.101 20.65C112.101 19.222 112.437 17.941 113.109 16.807C113.781 15.659 114.712 14.763 115.902 14.119C117.092 13.461 118.422 13.132 119.892 13.132C121.04 13.132 122.09 13.328 123.042 13.72C123.994 14.098 124.806 14.665 125.478 15.421L124.113 16.744C123.007 15.582 121.628 15.001 119.976 15.001C118.884 15.001 117.897 15.246 117.015 15.736C116.133 16.226 115.44 16.905 114.936 17.773C114.446 18.627 114.201 19.586 114.201 20.65C114.201 21.714 114.446 22.68 114.936 23.548C115.44 24.402 116.133 25.074 117.015 25.564C117.897 26.054 118.884 26.299 119.976 26.299C121.614 26.299 122.993 25.711 124.113 24.535L125.478 25.858C124.806 26.614 123.987 27.188 123.021 27.58C122.069 27.972 121.019 28.168 119.871 28.168ZM139.142 26.173V28H128.474V13.3H138.848V15.127H130.574V19.642H137.945V21.427H130.574V26.173H139.142Z" fill="white"/>
</svg>
